<?xml version="1.0" encoding="UTF-8" standalone="no"?>
<!-- Created with Inkscape (http://www.inkscape.org/) -->

<svg
   xmlns:dc="http://purl.org/dc/elements/1.1/"
   xmlns:cc="http://creativecommons.org/ns#"
   xmlns:rdf="http://www.w3.org/1999/02/22-rdf-syntax-ns#"
   xmlns:svg="http://www.w3.org/2000/svg"
   xmlns="http://www.w3.org/2000/svg"
   xmlns:sodipodi="http://sodipodi.sourceforge.net/DTD/sodipodi-0.dtd"
   xmlns:inkscape="http://www.inkscape.org/namespaces/inkscape"
   width="140.8"
   height="198.3"
   id="svg3333"
   version="1.1"
   inkscape:version="0.48.5 r10040"
   sodipodi:docname="New document 2">
  <defs
     id="defs3335" />
  <sodipodi:namedview
     id="base"
     pagecolor="#ffffff"
     bordercolor="#666666"
     borderopacity="1.0"
     inkscape:pageopacity="0.0"
     inkscape:pageshadow="2"
     inkscape:zoom="0.35"
     inkscape:cx="99.685714"
     inkscape:cy="-120.85"
     inkscape:document-units="px"
     inkscape:current-layer="layer1"
     showgrid="false"
     fit-margin-top="0"
     fit-margin-left="0"
     fit-margin-right="0"
     fit-margin-bottom="0"
     inkscape:window-width="451"
     inkscape:window-height="423"
     inkscape:window-x="154"
     inkscape:window-y="329"
     inkscape:window-maximized="0" />
  <metadata
     id="metadata3338">
    <rdf:RDF>
      <cc:Work
         rdf:about="">
        <dc:format>image/svg+xml</dc:format>
        <dc:type
           rdf:resource="http://purl.org/dc/dcmitype/StillImage" />
        <dc:title></dc:title>
      </cc:Work>
    </rdf:RDF>
  </metadata>
  <g
     inkscape:label="Layer 1"
     inkscape:groupmode="layer"
     id="layer1"
     transform="translate(-275.31429,-213.21218)">
    <g
       transform="translate(37.114286,-549.18782)"
       id="vASeLS_1_">
      <g
         id="g146">
        <path
           style="fill:#f8981d"
           inkscape:connector-curvature="0"
           id="path148"
           d="m 379,805.8 c 0,1.7 0,3.5 0,5.2 -2,2.5 -4.1,4.9 -5.8,7.5 -1.9,2.8 -4,5.7 -5.1,8.8 -4.2,11.6 -7.8,23.4 -11.9,35.1 -3.5,9.9 -10.7,16.5 -19.7,21.4 -4.7,2.5 -9.4,5 -14.2,7.4 -2.3,1.1 -3.3,2.7 -3,5.3 1.1,11.8 2,23.7 3.2,35.6 0.2,1.6 1.1,3.4 2.2,4.6 5.8,6.8 13.1,11.3 21.9,12.9 5.8,1.1 11.7,1.9 17.5,3.1 1.2,0.3 2.8,2.2 2.8,3.3 -0.1,1.3 -1.5,2.9 -2.7,3.8 -1,0.7 -2.6,0.9 -3.9,0.9 -34.6,0 -69.3,0 -103.9,0 -1.4,0 -3.1,-0.4 -4.2,-1.2 -1,-0.7 -2,-2.2 -2.1,-3.5 0,-1 1.1,-2.6 2.1,-3 2.2,-1 4.7,-1.7 7.1,-2 9.6,-0.9 19,-2.2 26.8,-8.5 3.6,-2.9 7.8,-5.6 8.4,-10.5 1.4,-12.1 2.3,-24.2 3.1,-36.3 0.1,-1.4 -1.3,-3.5 -2.6,-4.3 -4.8,-2.9 -9.8,-5.3 -14.7,-7.9 -8.7,-4.8 -15.7,-11.2 -19.2,-20.9 -3.7,-10.2 -7.7,-20.4 -10.7,-30.8 -1.8,-6.2 -3.8,-11.9 -8.9,-16.2 -1.4,-1.2 -2.2,-3.2 -3.3,-4.8 0,-1.7 0,-3.5 0,-5.2 1.9,-2.4 3.5,-5.1 5.7,-7.1 1.9,-1.7 2.4,-3.4 2.3,-5.8 -0.3,-7.3 -0.6,-14.6 -0.7,-21.9 -0.1,-5.3 2.3,-7.5 7.7,-7.7 4.9,-0.2 9.9,-0.5 14.8,-0.7 27.1,0 54.2,0 81.3,0 5.2,0.2 10.4,0.5 15.6,0.7 4.4,0.2 6.9,2.6 6.9,7 0,6.2 0,12.4 -0.5,18.6 -0.4,4.7 0.3,8.4 4.1,11.6 1.4,1.5 2.4,3.7 3.6,5.5 z" />
      </g>
    </g>
  </g>
</svg>
