<?xml version="1.0" encoding="utf-8"?>
<!-- Generator: Adobe Illustrator 18.1.1, SVG Export Plug-In . SVG Version: 6.00 Build 0)  -->
<svg version="1.1" id="Layer_1" xmlns="http://www.w3.org/2000/svg" xmlns:xlink="http://www.w3.org/1999/xlink" x="0px" y="0px"
	 viewBox="0 0 841.9 250.5" enable-background="new 0 0 841.9 250.5" xml:space="preserve">
<g>
	<g>
		<path fill="#7E8AA2" d="M198.5,95.4c2.7-1.4,8.5-2.5,12.4-2.5v15.7h14.2c0.5,2,0.9,7.2,0.5,10.1h-14.7v22.6c0,5.6,2.4,7.4,6.6,7.4
			c2.6,0,6.8-0.6,9.4-1.3c0.1,0.5,0.1,1,0.1,1.2c0,2.3-1,6.1-2.5,8.4c-3.9,2.1-10.1,3.3-13.9,3.3c-9.8,0-14.7-4.8-14.7-16.8
			c0-6.7,0.3-16.7,1-24.8h-7.7c0-2.5,0.8-7.3,1.8-9.4c1.5-0.9,4-1.8,5.6-2.3L198.5,95.4z"/>
		<path fill="#7E8AA2" d="M232.2,119.2c0.1-2.9,1.2-7.3,2.5-9.4c2.7-1.2,7.3-2.1,11.7-2.1c2.7,0,6.3,0.4,8.1,1.1v39.9
			c2.2,0.3,5.5,1,7.3,1.8c0.3,1.1,0.5,3.6,0.5,5.7c0,0.8,0,1.5-0.1,2.3H232c0.2-2.5,0.9-5.8,1.6-7.5c1.4-1.1,3.9-2.2,5.9-2.9v-29.1
			H232.2z M256.2,89.1c0,6-3.7,9.4-8.9,9.4c-5.9,0-9.1-3.3-9.1-9.4c0-5.3,3.8-8.8,9.1-8.8C252.5,80.3,256.2,83.4,256.2,89.1z"/>
		<path fill="#7E8AA2" d="M289.6,148.8c1.9,0.3,5,1,6.6,1.8c0.4,1.6,0.7,5.9,0.4,8h-29.4c0.2-2.5,0.9-5.8,1.6-7.5
			c1.4-1.1,4-2.2,5.9-2.9v-29.1h-7.4c0.1-2.9,1.2-7.3,2.5-9.4c2.5-1.2,6.4-2.1,10.4-2.1c2.5,0,5.5,0.4,7.1,1.1v8.1h1.5
			c2.8-5.7,7.8-10,16.3-10c7.2,0,12.5,1.7,14.3,10.4h0.9c2.3-5.7,7.5-10.4,16.2-10.4c8.5,0,16.5,2.6,16.5,18.7
			c0,7.4-0.3,16.3-0.8,23c2.2,0.3,5.4,1.1,7.3,2c0.3,1.2,0.5,3.6,0.5,5.6c0,0.8,0,1.5-0.1,2.4h-27.9c0.2-2.5,0.7-5.8,1.3-7.5
			c1.1-1.1,3.1-2.2,4.6-2.9v-19.9c0-5.9-1.9-10.1-7.7-10.1c-3.9,0-7.1,2.6-9.3,5.4v25.1c1.9,0.3,5,1,6.6,1.8c0.4,1.6,0.7,5.9,0.4,8
			h-27.1c0.2-2.5,0.6-5.8,1.2-7.5c1-1.1,3.1-2.2,4.5-2.9v-19.9c0-5.9-1.9-10.1-7.7-10.1c-3.8,0-7.1,2.5-9.3,5.4V148.8z"/>
		<path fill="#7E8AA2" d="M380.9,136.8c0.8,8,5.8,12.4,13.9,12.4c4.6,0,12.4-1.3,16.1-2.7c0.3,2.8-0.9,7.4-2.6,9.9
			c-3.8,2-10.1,3.9-17.4,3.9c-16.3,0-25.5-11-25.5-25.7c0-16.2,10.3-27.7,26.3-27.7c13.9,0,19.7,9.4,19.7,24.2
			c0,1.7-0.2,3.9-0.4,5.7H380.9z M397,127.4c0.6-5.3-1.1-11.6-7.2-11.6c-5.2,0-8.9,4.8-9.4,11.6H397z"/>
		<path fill="#263248" d="M451.7,115.7c-2-1-4-1.5-5.9-1.5c-8.8,0-15.2,5.8-15.2,19.3c0,13.5,6.8,19.9,16,19.9
			c3.6,0,9.3-1.2,12.6-2.5c0.1,1.5-0.5,4.3-1.4,5.8c-3.5,1.8-9.7,3.7-15.2,3.7c-13.2,0-21.7-10.7-21.7-25
			c0-15.9,10.1-27.1,25.1-27.1c5.3,0,9.9,1.4,13.4,3.7c0.1,1,0.2,2.7,0.2,3.7c0,3-0.4,6-1.4,8.7c-1.8,0-4.8-0.5-6.4-1.3V115.7z"/>
		<path fill="#263248" d="M497.2,152.5c-2.7,5-8.2,7.8-14.3,7.8c-7.5,0-14.5-4.3-14.5-13.7c0-10.5,8.9-16,19-16c3.3,0,7,0.6,9.5,1.7
			v-5.5c0-7.6-3.3-11.5-9.7-11.5c-4.4,0-11.4,2.6-14.9,5c-0.4-0.9-0.5-2.2-0.5-3.5c0-1.9,0.5-4.1,1.1-5.1c3.4-1.9,11.3-3.6,16.7-3.6
			c11.2,0,16.1,5.4,16.1,19.5v19.9c0,2.1,0.5,4.5,1.3,5.3c1.5,0,5.1-0.6,7.1-1.2c0.1,0.4,0.1,0.8,0.1,1.1c0,1.6-0.4,3.4-1,4.6
			c-2.3,1.4-7.6,3-11.1,3c-2-1.2-4-4.5-4.3-7.8H497.2z M497,136.9c-1.9-0.5-5.1-0.8-7.2-0.8c-8,0-12.5,3.6-12.5,9
			c0,5.6,4.4,8.2,9.3,8.2c4,0,8.3-1.9,10.3-5V136.9z"/>
		<path fill="#263248" d="M534.3,175.7c2.8,0.2,7.5,1.1,9.7,1.8c0.3,1.2,0.4,3.3,0.2,4.7h-26.8c0.2-1.5,0.7-3.3,1.4-4.6
			c1.6-0.7,4.5-1.5,6.6-1.9v-60h-7.6c0.1-1.7,0.8-3.9,1.8-5.4c2.3-0.8,5.5-1.4,8.5-1.4c1.7,0,3.4,0.2,4.8,0.6v6.7h1
			c2.6-4.1,6.5-7.9,15.1-7.9c9,0,19.4,6.1,19.4,24.7c0,16.5-10.3,27.4-25.1,27.4c-3,0-6.9-0.9-9-2.5V175.7z M534.2,152.7
			c2.5,0.8,5.4,1.4,8.5,1.4c11.3,0,16.4-8.1,16.4-20c0-12.3-5.5-19.3-13.2-19.3c-5.9,0-9.5,3.1-11.7,6.2V152.7z"/>
		<path fill="#263248" d="M603.7,114.8c-1.4-0.6-3.8-1.2-6-1.2c-5.3,0-8.4,2.5-8.4,6.2c0,11.5,23.9,8,23.9,25.8
			c0,10.6-8.9,14.7-18.4,14.7c-5.8,0-11.3-1.3-15.7-3.9c-0.3-1.1-0.5-3.3-0.5-4.9c0-2.6,0.5-5.4,1-7.3c2.3,0,5.2,0.3,7.4,0.9v7.1
			c2.4,1.5,5.5,2.4,8.6,2.4c5.1,0,8.6-3.1,8.6-7.7c0-12.2-24.1-7.8-24.1-25.9c0-7.5,6.9-12.8,17-12.8c4.7,0,9.8,0.8,14.4,2.7
			c0.2,0.9,0.2,2,0.2,3.2c0,2.9-0.5,6-1.1,8.3c-2.3,0-5.1-0.5-6.9-1.5V114.8z"/>
		<path fill="#263248" d="M658.2,115.7h-7.4c0.1-1.7,0.8-3.9,1.8-5.4c2.4-0.9,5.8-1.4,9.2-1.4c1.8,0,3.7,0.2,5.2,0.6v35.6
			c0,2.3,0.2,4.9,0.8,7.3h7.8c0.1,0.4,0.1,1,0.1,1.3c0,1.3-0.4,3.1-0.8,4.1c-3.7,1.2-11,2-14,2c-1.1-2-1.8-5.2-2-8.1h-0.5
			c-1.8,3.5-7.2,8.6-16.3,8.6c-8,0-15.1-2.6-15.1-18.4c0-8.6,0.1-17.6,0.5-26.2h-7.8c0.2-1.6,0.8-3.9,1.8-5.3
			c2.4-0.9,5.9-1.5,9.3-1.5c1.8,0,3.7,0.2,5.2,0.6v31c0,7.8,2.5,12.8,9.4,12.8c5.1,0,10.4-3.4,12.6-6.2V115.7z"/>
		<path fill="#263248" d="M682.1,90.6c0.1-1.7,0.8-3.9,1.8-5.4c2.4-0.8,5.8-1.4,9.2-1.4c1.8,0,3.7,0.2,5.2,0.6v67.9
			c2.6,0.2,6.1,0.8,8.3,1.4c0.2,0.8,0.3,2.1,0.3,3.2c0,0.6,0,1.1-0.1,1.7h-25.4c0.2-1.5,0.7-3.3,1.4-4.6c1.6-0.7,4.5-1.5,6.6-1.9
			V90.6H682.1z"/>
		<path fill="#263248" d="M723.6,135.4c0.2,11,7.1,17.7,16.7,17.7c4.4,0,10.5-1.4,14.3-2.9c0.2,1.5-0.4,4.3-1.3,5.8
			c-3.7,2.1-9.8,4.2-16.2,4.2c-14.6,0-23-11-23-25.1c0-15.1,9.3-27,23.7-27c12.3,0,17.5,8.9,17.5,21.8c0,1.7-0.1,3.6-0.3,5.4H723.6z
			 M746.1,129.5c0.7-7.1-1.3-15.7-9.9-15.7c-7.3,0-12,6.3-12.6,15.7H746.1z"/>
	</g>
	<g>
		<g id="_x31_upNvh_2_">
			<g>
				<path fill="#F8981D" d="M128.9,183.3c-3.5-5-6.9-9.9-10.3-14.8c-8-11.5-16-23-24-34.6c-17.6-25.6-4.2-59.9,26.3-65.9
					c25.3-5,45.9,12.5,49.7,33.5c2.1,11.5-0.1,22.1-6.7,31.7c-11.3,16.4-22.7,32.7-34.1,49.1C129.5,182.6,129.3,182.8,128.9,183.3z
					 M128.9,128.6c10.7,0,19.3-8.4,19.4-19c0.1-10.6-8.6-19.4-19.4-19.4c-10.7,0-19.2,8.5-19.2,19.2
					C109.6,120.1,118.1,128.6,128.9,128.6z"/>
			</g>
		</g>
		<g id="RZv5LJ_1_">
			<g>
				<path d="M127.9,110.7c-1.2-0.6-2.4-1.2-3.6-1.8c-2.7-1.3-5.4-2.7-8-4c-0.4-0.2-0.7-0.6-0.8-1c-0.1-0.2,0-0.5,0.2-0.6
					c0.4-0.2,0.8-0.3,1.2-0.1c1.9,1,3.9,2,5.9,2.9c2.1,1.1,4.3,2.1,6.4,3.2c0.5,0.2,0.7,0.7,0.5,1.3c-0.4,1.2-0.9,2.4-1.3,3.6
					c-0.5,1.4-1,2.7-1.4,4.1c-0.1,0.4-0.5,0.7-0.8,0.6c-0.3,0-0.7-0.3-0.8-0.7c0-0.3,0.1-0.6,0.2-0.9c0.3-1,0.7-1.9,1-2.9
					C127,113.3,127.4,112,127.9,110.7z"/>
			</g>
		</g>
	</g>
</g>
</svg>
