<?xml version="1.0" encoding="UTF-8" standalone="no"?>
<!-- Generator: Adobe Illustrator 18.1.1, SVG Export Plug-In . SVG Version: 6.00 Build 0)  -->

<svg
   xmlns:dc="http://purl.org/dc/elements/1.1/"
   xmlns:cc="http://creativecommons.org/ns#"
   xmlns:rdf="http://www.w3.org/1999/02/22-rdf-syntax-ns#"
   xmlns:svg="http://www.w3.org/2000/svg"
   xmlns="http://www.w3.org/2000/svg"
   xmlns:sodipodi="http://sodipodi.sourceforge.net/DTD/sodipodi-0.dtd"
   xmlns:inkscape="http://www.inkscape.org/namespaces/inkscape"
   version="1.1"
   id="Layer_1"
   x="0px"
   y="0px"
   viewBox="0 0 17.128513 23.508347"
   enable-background="new 0 0 567 661.5"
   xml:space="preserve"
   inkscape:version="0.48.5 r10040"
   width="100%"
   height="100%"
   sodipodi:docname="marker.svg"><metadata
   id="metadata21"><rdf:RDF><cc:Work
       rdf:about=""><dc:format>image/svg+xml</dc:format><dc:type
         rdf:resource="http://purl.org/dc/dcmitype/StillImage" /></cc:Work></rdf:RDF></metadata><defs
   id="defs19" /><sodipodi:namedview
   pagecolor="#ffffff"
   bordercolor="#666666"
   borderopacity="1"
   objecttolerance="10"
   gridtolerance="10"
   guidetolerance="10"
   inkscape:pageopacity="0"
   inkscape:pageshadow="2"
   inkscape:window-width="944"
   inkscape:window-height="1001"
   id="namedview17"
   showgrid="false"
   fit-margin-top="0"
   fit-margin-left="0"
   fit-margin-right="0"
   fit-margin-bottom="0"
   inkscape:zoom="16.145338"
   inkscape:cx="14.542313"
   inkscape:cy="9.6610083"
   inkscape:window-x="0"
   inkscape:window-y="0"
   inkscape:window-maximized="0"
   inkscape:current-layer="Layer_1" />
<circle
   cx="292.20001"
   cy="257.5"
   r="122.2"
   id="circle3"
   sodipodi:cx="292.20001"
   sodipodi:cy="257.5"
   sodipodi:rx="122.2"
   sodipodi:ry="122.2"
   style="fill:#ffffff"
   transform="translate(-75.075566,-36.112508)" />
<rect
   style="fill:#ffffff;fill-opacity:1;fill-rule:evenodd;stroke:none"
   id="rect2998"
   width="12.32554"
   height="10.839043"
   x="2.5394332"
   y="3.2548215"
   ry="1.5438298" /><g
   id="g5"
   transform="matrix(0.04056748,0,0,0.04056748,-3.0456265,-1.4649945)">
	<g
   id="_x31_upNvh_2_">
		<g
   id="g8">
			<path
   d="M 285.8,615.6 C 268.3,590.5 251.1,566.2 234.1,541.7 194.1,484.2 154,426.9 114.3,369.2 26.3,241.3 93.4,70.3 245.5,40.4 c 126.1,-24.9 229.1,62.3 248,167.2 10.4,57.6 -0.5,110.4 -33.4,158.3 -56.3,82 -113.4,163.4 -170.2,245.1 -1,1.2 -2.2,2.3 -4.1,4.6 z m 0,-273.1 c 53.6,0.1 96.2,-41.7 96.9,-95 0.7,-53.1 -43,-96.7 -96.8,-96.7 -53.4,0 -95.8,42.4 -96,95.9 -0.1,53.3 42.3,95.7 95.9,95.8 z"
   id="path10"
   inkscape:connector-curvature="0"
   style="fill:#f8981d" />
		</g>
	</g>
	<g
   id="RZv5LJ_1_">
		<g
   id="g13">
			<path
   d="m 281.1,253 c -6,-3 -11.9,-5.9 -17.8,-8.9 -13.4,-6.7 -26.7,-13.4 -40.1,-20 -2.2,-1.1 -3.3,-2.8 -4.2,-4.8 -0.5,-1.1 0,-2.3 1.1,-2.8 1.9,-0.8 3.8,-1.4 6,-0.3 9.7,5 19.5,9.8 29.2,14.7 10.6,5.3 21.2,10.6 31.9,15.9 2.4,1.2 3.7,3.3 2.6,6.3 -2.2,6 -4.3,12.1 -6.5,18.2 -2.4,6.8 -4.8,13.6 -7.2,20.3 -0.7,1.9 -2.6,3.3 -4.2,3.2 -1.7,-0.1 -3.7,-1.7 -3.9,-3.5 -0.1,-1.4 0.4,-3 0.9,-4.4 1.6,-4.8 3.4,-9.5 5.1,-14.2 2.3,-6.5 4.7,-13 7.1,-19.7 z"
   id="path15"
   inkscape:connector-curvature="0" />
		</g>
	</g>
</g>
</svg>