<?xml version="1.0" encoding="UTF-8" standalone="no"?>
<!-- Created with Inkscape (http://www.inkscape.org/) -->

<svg
   xmlns:dc="http://purl.org/dc/elements/1.1/"
   xmlns:cc="http://creativecommons.org/ns#"
   xmlns:rdf="http://www.w3.org/1999/02/22-rdf-syntax-ns#"
   xmlns:svg="http://www.w3.org/2000/svg"
   xmlns="http://www.w3.org/2000/svg"
   xmlns:sodipodi="http://sodipodi.sourceforge.net/DTD/sodipodi-0.dtd"
   xmlns:inkscape="http://www.inkscape.org/namespaces/inkscape"
   width="243.83124"
   height="241.57092"
   id="svg3366"
   version="1.1"
   inkscape:version="0.48.5 r10040"
   sodipodi:docname="New document 4">
  <defs
     id="defs3368" />
  <sodipodi:namedview
     id="base"
     pagecolor="#ffffff"
     bordercolor="#666666"
     borderopacity="1.0"
     inkscape:pageopacity="0.0"
     inkscape:pageshadow="2"
     inkscape:zoom="0.35"
     inkscape:cx="121.91562"
     inkscape:cy="120.78546"
     inkscape:document-units="px"
     inkscape:current-layer="layer1"
     showgrid="false"
     fit-margin-top="0"
     fit-margin-left="0"
     fit-margin-right="0"
     fit-margin-bottom="0"
     inkscape:window-width="525"
     inkscape:window-height="423"
     inkscape:window-x="42"
     inkscape:window-y="75"
     inkscape:window-maximized="0" />
  <metadata
     id="metadata3371">
    <rdf:RDF>
      <cc:Work
         rdf:about="">
        <dc:format>image/svg+xml</dc:format>
        <dc:type
           rdf:resource="http://purl.org/dc/dcmitype/StillImage" />
        <dc:title></dc:title>
      </cc:Work>
    </rdf:RDF>
  </metadata>
  <g
     inkscape:label="Layer 1"
     inkscape:groupmode="layer"
     id="layer1"
     transform="translate(-253.08438,-411.57672)">
    <g
       transform="translate(-417.43142,-356.05236)"
       id="g135">
      <path
         style="fill:#f8981d"
         inkscape:connector-curvature="0"
         d="m 913.6,845.1 c -3.5,-23.6 -22.7,-43.7 -48.4,-45.2 -1.5,-0.1 -2.3,-0.6 -3.1,-1.9 -14.2,-22.2 -34.9,-31.8 -60.8,-30.2 -13.3,0.9 -25.2,6 -35.6,14.6 -0.9,0.8 -1.6,0.9 -2.7,0.4 -5.3,-2.4 -10.9,-3.3 -16.7,-2.8 -1.2,0.1 -2.4,0.3 -3.7,0.5 -1.5,-0.1 -3,0.1 -4.4,0.8 -1.7,0.2 -3.4,0.6 -5.1,1 -4.4,1.1 -9.3,2.4 -13.1,4.8 -3.2,2.1 -5.5,4.7 -7.2,7.7 0,0 0,0 0,0 -29.2,5.5 -48.4,36 -40.5,64.8 5.3,19.4 17.8,31.9 37,37.7 1.2,0.4 1.9,0.7 1.9,2.2 0.1,9.5 3.7,17.6 10.3,24.4 9.6,9.8 21.5,14.4 35,15 14.6,0.6 27.7,-3.4 38.7,-13.5 0.9,-0.8 1.7,-0.6 2.6,-0.3 9.3,3 18.7,3.4 28.2,1.5 5.3,-1.1 10.2,-3 14.9,-5.8 0,-0.1 -0.1,-0.1 -0.1,-0.1 1.6,-0.6 3.1,-1.6 4.3,-2.7 0.9,-0.8 1.6,-1.7 2.2,-2.7 2.6,-0.3 5.1,-0.8 7.7,-1.4 5.8,-1.5 11.5,-3.6 17,-6.1 7.8,-1.5 15,-4.7 21.2,-9.8 17,-13.7 23.5,-31.6 20.4,-52.9 z M 858.7,890 h -35.3 c 0.3,-2.2 1,-4.8 2.1,-6.7 2.2,-1 6,-2.2 8.5,-2.8 v -34.9 c 0,-11.5 -3.4,-18.8 -13.7,-18.8 -7.6,0 -15.1,5.5 -18.2,9.5 v 44.4 c 3.7,0.3 8.2,1.2 10.9,2.1 0.4,1.8 0.6,5.1 0.3,7.2 h -34.5 c 0.3,-2.2 1,-4.8 2.1,-6.7 2.2,-1 6,-2.2 8.5,-2.8 v -34.9 c 0,-11.5 -3.4,-18.8 -13.7,-18.8 -7.5,0 -15.1,5.4 -18.2,9.5 v 44.6 c 3.7,0.3 8.2,1 10.9,1.9 0.4,1.8 0.6,5.1 0.3,7.2 h -35.8 c 0.3,-2.2 1,-4.8 2.1,-6.7 2.4,-1 6.6,-2.2 9.5,-2.8 v -53 h -10.9 c 0.1,-2.5 1.2,-5.7 2.7,-7.9 3.1,-1.2 7.9,-2.1 12.4,-2.1 2.5,0 4.9,0.3 7,0.9 v 10.9 h 1.5 c 2.7,-5.1 10.4,-12.7 23.6,-12.7 9.1,0 17,2.5 19.8,13.6 h 0.7 c 2.5,-5.5 10.6,-13.6 24,-13.6 11.6,0 21.9,3.7 21.9,26.9 0,12.7 -0.3,25.2 -0.9,37.4 4,0.3 9.1,1 12.1,1.9 0.3,1.2 0.4,3 0.4,4.6 0.1,1 0.1,1.7 -0.1,2.6 z"
         id="path137" />
      <path
         style="fill:#f8981d"
         inkscape:connector-curvature="0"
         d="m 719.9,936.2 c -12.4,0.1 -21.8,10.7 -21.4,22.5 0.4,11.6 10,21.1 21.9,21 11.9,-0.1 21.7,-9.9 21.6,-21.7 0,-12.3 -9.8,-21.9 -22.1,-21.8 z"
         id="path139" />
      <path
         style="fill:#f8981d"
         inkscape:connector-curvature="0"
         d="m 699.3,978.7 c -8.5,0 -15.4,6.8 -15.4,15.3 0,8.4 6.8,15.2 15.2,15.2 8.5,0 15.3,-6.7 15.3,-15.1 0.1,-8.5 -6.6,-15.4 -15.1,-15.4 z"
         id="path141" />
    </g>
  </g>
</svg>
