<?xml version="1.0" encoding="UTF-8" standalone="no"?>
<!-- Created with Inkscape (http://www.inkscape.org/) -->

<svg
   xmlns:dc="http://purl.org/dc/elements/1.1/"
   xmlns:cc="http://creativecommons.org/ns#"
   xmlns:rdf="http://www.w3.org/1999/02/22-rdf-syntax-ns#"
   xmlns:svg="http://www.w3.org/2000/svg"
   xmlns="http://www.w3.org/2000/svg"
   xmlns:sodipodi="http://sodipodi.sourceforge.net/DTD/sodipodi-0.dtd"
   xmlns:inkscape="http://www.inkscape.org/namespaces/inkscape"
   width="199.89349"
   height="199.78391"
   id="svg3403"
   version="1.1"
   inkscape:version="0.48.5 r10040"
   sodipodi:docname="New document 6">
  <defs
     id="defs3405" />
  <sodipodi:namedview
     id="base"
     pagecolor="#ffffff"
     bordercolor="#666666"
     borderopacity="1.0"
     inkscape:pageopacity="0.0"
     inkscape:pageshadow="2"
     inkscape:zoom="0.35"
     inkscape:cx="99.94675"
     inkscape:cy="99.891955"
     inkscape:document-units="px"
     inkscape:current-layer="layer1"
     showgrid="false"
     fit-margin-top="0"
     fit-margin-left="0"
     fit-margin-right="0"
     fit-margin-bottom="0"
     inkscape:window-width="451"
     inkscape:window-height="423"
     inkscape:window-x="620"
     inkscape:window-y="83"
     inkscape:window-maximized="0" />
  <metadata
     id="metadata3408">
    <rdf:RDF>
      <cc:Work
         rdf:about="">
        <dc:format>image/svg+xml</dc:format>
        <dc:type
           rdf:resource="http://purl.org/dc/dcmitype/StillImage" />
        <dc:title></dc:title>
      </cc:Work>
    </rdf:RDF>
  </metadata>
  <g
     inkscape:label="Layer 1"
     inkscape:groupmode="layer"
     id="layer1"
     transform="translate(-275.05325,-432.47023)">
    <g
       transform="translate(-891.04675,-326.62977)"
       id="VIzcSf_2_">
      <g
         id="g151">
        <path
           style="fill:#f8981d"
           inkscape:connector-curvature="0"
           id="path153"
           d="m 1330.4,935.3 c -31.2,23.8 -65.1,30.5 -101.4,15.9 -37.8,-15.2 -57.8,-44.7 -62.9,-85.2 1.2,0 2,0 2.8,0 30.1,0 60.2,0 90.2,0 1.5,0 2.5,0.4 3.5,1.5 21.9,22 43.9,43.9 65.8,65.9 0.7,0.4 1.2,1 2,1.9 z" />
        <path
           style="fill:#f8981d"
           inkscape:connector-curvature="0"
           id="path155"
           d="m 1258.9,759.2 c 0,4.6 0,9 0,13.5 0,20.1 0,40.2 0,60.4 0,5.4 -0.1,10.8 0,16.3 0,1.7 -0.6,2.2 -2.2,2.1 -17.3,0 -34.6,0 -51.9,0 -11.2,0 -22.4,0 -33.6,0 -1.5,0 -2.9,0 -4.4,0 2,-45.3 40.1,-88.9 92.1,-92.3 z" />
        <path
           style="fill:#f8981d"
           inkscape:connector-curvature="0"
           id="path157"
           d="m 1347.8,801.6 c 25.9,35.2 24.1,87.5 -5.1,120.7 -21.1,-21.1 -42.3,-42.3 -63.5,-63.5 22.7,-18.9 45.6,-37.9 68.6,-57.2 z" />
        <path
           style="fill:#f8981d"
           inkscape:connector-curvature="0"
           id="path159"
           d="m 1337.5,788.7 c -21.3,17.8 -42.4,35.4 -63.8,53.2 0,-27.7 0,-55.1 0,-82.8 24.8,2 45.8,11.9 63.8,29.6 z" />
      </g>
    </g>
  </g>
</svg>
